<?xml version="1.0" encoding="UTF-8"?>
<svg width="300" height="300" enable-background="new 0 0 420 420" version="1.1" viewBox="0 0 500 500" xml:space="preserve" xmlns="http://www.w3.org/2000/svg">
	<polygon points="420 210 375.77 247.86 399.24 301.14 342.93 315.99 340.94 374.18 283.76 363.21 256.72 414.78 210 380 163.28 414.78 136.24 363.21 79.055 374.18 77.073 315.99 20.762 301.14 44.226 247.86 0 210 44.226 172.14 20.762 118.86 77.074 104.01 79.055 45.816 136.24 56.789 163.28 5.221 210 40 256.72 5.221 283.76 56.789 340.94 45.816 342.93 104.01 399.24 118.86 375.77 172.14" fill="#F5C525"/>
	<circle cx="210" cy="210" r="140" fill="#F8A805"/>
</svg>
